# xmcd
#
# Track frame offsets: 
#        150
#        13757
#        35547
#        58665
#        91797
#        107495
#        132755
#        149977
#        174175
#        193070
#        211642
#        233845
#        244442
#        260267
#        278732
#        292075
#
# Disc length: 4268 seconds
#
# Revision: 5
# Processed by: cddbd v1.5.2PL0 Copyright (c) Steve Scherf et al.
# Submitted via: ExactAudioCopy v1.0b3
#
DISCID=e910aa10
DTITLE=Howlin' Wolf - Treasures From The Blues, Disc 1
DYEAR=2008
DGENRE=Blues
TTITLE0=Highway 49
TTITLE1=Dust my broom
TTITLE2=Rockin' the blues
TTITLE3=Forty-four
TTITLE4=Do the do
TTITLE5=Little red rooster
TTITLE6=All my life
TTITLE7=I didn't mean to hurt your feelings
TTITLE8=Howlin' for my darlin'
TTITLE9=Commit a crime
TTITLE10=Wang dang doodle
TTITLE11=Built for comfort
TTITLE12=Killing floor
TTITLE13=Poor boy
TTITLE14=Worried about you
TTITLE15=Goin' down
EXTD=
EXTT0=
EXTT1=
EXTT2=
EXTT3=
EXTT4=
EXTT5=
EXTT6=
EXTT7=
EXTT8=
EXTT9=
EXTT10=
EXTT11=
EXTT12=
EXTT13=
EXTT14=
EXTT15=
PLAYORDER=
